<?xml version="1.0" encoding="utf-8"?>
<!-- Generator: Adobe Illustrator 16.0.3, SVG Export Plug-In . SVG Version: 6.00 Build 0)  -->
<!DOCTYPE svg PUBLIC "-//W3C//DTD SVG 1.1//EN" "http://www.w3.org/Graphics/SVG/1.1/DTD/svg11.dtd">
<svg version="1.1" id="Layer_1" xmlns="http://www.w3.org/2000/svg" xmlns:xlink="http://www.w3.org/1999/xlink" x="0px" y="0px"
	 width="100px" height="100px" viewBox="0 0 100 100" enable-background="new 0 0 100 100" xml:space="preserve">
<g>
	<path fill-rule="evenodd" clip-rule="evenodd" fill="#FFFFFF" d="M50,1.234c-27.611,0-50,22.385-50,50
		c0,22.092,14.327,40.834,34.193,47.444c2.499,0.464,3.417-1.085,3.417-2.404c0-1.192-0.046-5.132-0.068-9.309
		c-13.91,3.024-16.845-5.9-16.845-5.9c-2.274-5.779-5.552-7.316-5.552-7.316c-4.537-3.103,0.342-3.04,0.342-3.04
		c5.021,0.354,7.665,5.156,7.665,5.156c4.46,7.641,11.697,5.433,14.55,4.155c0.449-3.232,1.744-5.438,3.175-6.688
		c-11.106-1.264-22.782-5.551-22.782-24.709c0-5.458,1.954-9.92,5.153-13.42c-0.518-1.26-2.23-6.345,0.484-13.233
		c0,0,4.199-1.343,13.752,5.126c3.99-1.109,8.267-1.664,12.516-1.684c4.248,0.02,8.53,0.575,12.526,1.684
		c9.543-6.47,13.735-5.126,13.735-5.126c2.721,6.888,1.011,11.973,0.491,13.233c3.206,3.5,5.146,7.962,5.146,13.42
		c0,19.205-11.697,23.433-22.83,24.671c1.794,1.551,3.391,4.596,3.391,9.259c0,6.69-0.058,12.075-0.058,13.722
		c0,1.33,0.901,2.889,3.435,2.399C85.692,92.055,100,73.317,100,51.234C100,23.619,77.613,1.234,50,1.234z"/>
	<path fill="#FFFFFF" d="M18.938,73.025c-0.11,0.247-0.501,0.32-0.856,0.15c-0.364-0.162-0.567-0.501-0.449-0.75
		c0.108-0.256,0.5-0.327,0.861-0.157C18.856,72.433,19.063,72.774,18.938,73.025L18.938,73.025z M18.323,72.568"/>
	<path fill="#FFFFFF" d="M20.964,75.282c-0.239,0.221-0.706,0.118-1.021-0.23c-0.328-0.351-0.388-0.815-0.146-1.04
		c0.246-0.219,0.697-0.115,1.025,0.231C21.148,74.596,21.213,75.059,20.964,75.282L20.964,75.282z M20.486,74.771"/>
	<path fill="#FFFFFF" d="M22.934,78.161c-0.305,0.214-0.808,0.017-1.117-0.431c-0.308-0.443-0.308-0.978,0.007-1.19
		c0.31-0.214,0.805-0.021,1.118,0.418C23.248,77.411,23.248,77.944,22.934,78.161L22.934,78.161z M22.934,78.161"/>
	<path fill="#FFFFFF" d="M25.635,80.944c-0.274,0.303-0.858,0.22-1.285-0.192c-0.438-0.402-0.559-0.976-0.285-1.275
		c0.278-0.304,0.865-0.219,1.296,0.191C25.795,80.069,25.927,80.646,25.635,80.944L25.635,80.944z M25.635,80.944"/>
	<path fill="#FFFFFF" d="M29.362,82.56c-0.122,0.392-0.683,0.569-1.25,0.403c-0.565-0.171-0.936-0.631-0.822-1.025
		c0.118-0.395,0.683-0.581,1.252-0.403C29.108,81.707,29.478,82.16,29.362,82.56L29.362,82.56z M29.362,82.56"/>
	<path fill="#FFFFFF" d="M33.453,82.86c0.015,0.412-0.467,0.752-1.06,0.76c-0.598,0.013-1.083-0.32-1.089-0.724
		c0-0.418,0.47-0.758,1.067-0.767C32.966,82.119,33.453,82.451,33.453,82.86L33.453,82.86z M33.453,82.86"/>
	<path fill="#FFFFFF" d="M37.261,82.211c0.07,0.402-0.342,0.815-0.932,0.925c-0.581,0.106-1.118-0.142-1.193-0.539
		c-0.072-0.413,0.349-0.827,0.929-0.934C36.656,81.562,37.185,81.802,37.261,82.211L37.261,82.211z M37.261,82.211"/>
</g>
</svg>
